<svg width="16" height="16" viewBox="0 0 16 16" fill="none" xmlns="http://www.w3.org/2000/svg">
<path d="M5.53866 13.9999H10.4613C12.935 13.9999 13.378 13.0339 13.5072 11.8579L13.9687 7.0579C14.1349 5.5939 13.7041 4.3999 11.0767 4.3999H4.92333C2.29585 4.3999 1.86512 5.5939 2.03126 7.0579L2.49276 11.8579C2.62198 13.0339 3.06502 13.9999 5.53866 13.9999Z" stroke="white" stroke-width="1.2" stroke-miterlimit="10" stroke-linecap="round" stroke-linejoin="round"/>
<path d="M5.53882 4.4V3.92C5.53882 2.858 5.53882 2 7.50789 2H8.49242C10.4615 2 10.4615 2.858 10.4615 3.92V4.4" stroke="white" stroke-width="1.2" stroke-miterlimit="10" stroke-linecap="round" stroke-linejoin="round"/>
<path d="M6.54125 8.88738C5.00699 8.71987 3.50124 8.19647 2.15576 7.33325" stroke="white" stroke-width="1.2" stroke-miterlimit="10" stroke-linecap="round" stroke-linejoin="round"/>
<path d="M9.48901 8.88738C11.0233 8.71987 12.529 8.19647 13.8745 7.33325" stroke="white" stroke-width="1.2" stroke-miterlimit="10" stroke-linecap="round" stroke-linejoin="round"/>
<circle cx="8.00008" cy="9.00008" r="1.33333" stroke="white" stroke-width="1.2" stroke-linecap="round" stroke-linejoin="round"/>
</svg>
