<svg width="24" height="24" viewBox="0 0 24 24" fill="none" xmlns="http://www.w3.org/2000/svg">
<g clip-path="url(#clip0_110_1531)" filter="url(#filter0_d_110_1531)">
<g clip-path="url(#clip1_110_1531)">
<path fill-rule="evenodd" clip-rule="evenodd" d="M12 24C5.37258 24 0 18.6274 0 12C0 5.37258 5.37258 0 12 0C18.6274 0 24 5.37258 24 12C24 18.6274 18.6274 24 12 24ZM12 5C10.0989 5 9.86053 5.00806 9.11391 5.04212C8.36884 5.0761 7.85999 5.19445 7.41473 5.36751C6.95442 5.54637 6.56404 5.78572 6.17487 6.17487C5.78571 6.56405 5.54637 6.95442 5.36751 7.41473C5.19445 7.85999 5.07611 8.36884 5.04213 9.11391C5.00806 9.86053 5 10.0989 5 12C5 13.9011 5.00806 14.1395 5.04213 14.8861C5.07611 15.6312 5.19445 16.14 5.36751 16.5853C5.54637 17.0456 5.78571 17.4359 6.17487 17.8251C6.56404 18.2143 6.95442 18.4536 7.41473 18.6325C7.85999 18.8055 8.36884 18.9239 9.11391 18.9579C9.86053 18.9919 10.0989 19 12 19C13.9011 19 14.1395 18.9919 14.8861 18.9579C15.6312 18.9239 16.14 18.8055 16.5853 18.6325C17.0456 18.4536 17.436 18.2143 17.8251 17.8251C18.2143 17.4359 18.4536 17.0456 18.6325 16.5853C18.8055 16.14 18.9239 15.6312 18.9579 14.8861C18.9919 14.1395 19 13.9011 19 12C19 10.0989 18.9919 9.86053 18.9579 9.11391C18.9239 8.36884 18.8055 7.85999 18.6325 7.41473C18.4536 6.95442 18.2143 6.56405 17.8251 6.17487C17.436 5.78572 17.0456 5.54637 16.5853 5.36751C16.14 5.19445 15.6312 5.0761 14.8861 5.04212C14.1395 5.00806 13.9011 5 12 5ZM12 6.26126C13.8691 6.26126 14.0905 6.2684 14.8286 6.30208C15.5111 6.3332 15.8817 6.44723 16.1284 6.5431C16.4551 6.67008 16.6883 6.82177 16.9333 7.06673C17.1782 7.31167 17.3299 7.54486 17.4569 7.8716C17.5528 8.11826 17.6668 8.48891 17.6979 9.1714C17.7316 9.90952 17.7387 10.1309 17.7387 12C17.7387 13.8691 17.7316 14.0905 17.6979 14.8286C17.6668 15.5111 17.5528 15.8817 17.4569 16.1284C17.3299 16.4551 17.1782 16.6883 16.9333 16.9333C16.6883 17.1782 16.4551 17.3299 16.1284 17.4569C15.8817 17.5528 15.5111 17.6668 14.8286 17.6979C14.0906 17.7316 13.8692 17.7387 12 17.7387C10.1308 17.7387 9.90944 17.7316 9.1714 17.6979C8.48891 17.6668 8.11826 17.5528 7.8716 17.4569C7.54486 17.3299 7.31168 17.1782 7.06674 16.9333C6.8218 16.6883 6.67007 16.4551 6.54309 16.1284C6.44723 15.8817 6.3332 15.5111 6.30208 14.8286C6.2684 14.0905 6.26126 13.8691 6.26126 12C6.26126 10.1309 6.2684 9.90952 6.30208 9.1714C6.3332 8.48891 6.44723 8.11826 6.54309 7.8716C6.67007 7.54486 6.82178 7.31167 7.06674 7.06673C7.31168 6.82177 7.54486 6.67008 7.8716 6.5431C8.11826 6.44723 8.48891 6.3332 9.1714 6.30208C9.90952 6.2684 10.1309 6.26126 12 6.26126ZM12 14.3333C10.7113 14.3333 9.66667 13.2887 9.66667 12C9.66667 10.7113 10.7113 9.66666 12 9.66666C13.2887 9.66666 14.3333 10.7113 14.3333 12C14.3333 13.2887 13.2887 14.3333 12 14.3333ZM12 8.40541C10.0148 8.40541 8.40541 10.0147 8.40541 12C8.40541 13.9853 10.0148 15.5946 12 15.5946C13.9853 15.5946 15.5946 13.9853 15.5946 12C15.5946 10.0147 13.9853 8.40541 12 8.40541ZM16.5766 8.26339C16.5766 7.79947 16.2005 7.42338 15.7366 7.42338C15.2727 7.42338 14.8966 7.79947 14.8966 8.26339C14.8966 8.72731 15.2727 9.10338 15.7366 9.10338C16.2005 9.10338 16.5766 8.72731 16.5766 8.26339Z" fill="white"/>
</g>
</g>
<defs>
<filter id="filter0_d_110_1531" x="-4" y="0" width="32" height="32" filterUnits="userSpaceOnUse" color-interpolation-filters="sRGB">
<feFlood flood-opacity="0" result="BackgroundImageFix"/>
<feColorMatrix in="SourceAlpha" type="matrix" values="0 0 0 0 0 0 0 0 0 0 0 0 0 0 0 0 0 0 127 0" result="hardAlpha"/>
<feOffset dy="4"/>
<feGaussianBlur stdDeviation="2"/>
<feComposite in2="hardAlpha" operator="out"/>
<feColorMatrix type="matrix" values="0 0 0 0 0 0 0 0 0 0 0 0 0 0 0 0 0 0 0.25 0"/>
<feBlend mode="normal" in2="BackgroundImageFix" result="effect1_dropShadow_110_1531"/>
<feBlend mode="normal" in="SourceGraphic" in2="effect1_dropShadow_110_1531" result="shape"/>
</filter>
<clipPath id="clip0_110_1531">
<rect width="24" height="24" fill="white"/>
</clipPath>
<clipPath id="clip1_110_1531">
<rect width="24" height="24" fill="white"/>
</clipPath>
</defs>
</svg>
