<svg width="24" height="24" viewBox="0 0 24 24" fill="none" xmlns="http://www.w3.org/2000/svg">
<g clip-path="url(#clip0_110_1525)">
<g clip-path="url(#clip1_110_1525)">
<path fill-rule="evenodd" clip-rule="evenodd" d="M12 24C5.37258 24 0 18.6274 0 12C0 5.37258 5.37258 0 12 0C18.6274 0 24 5.37258 24 12C24 18.6274 18.6274 24 12 24ZM19 18V13.2692C19 10.9455 18.4935 9.16 15.7485 9.16C14.4299 9.16 13.5467 9.87499 13.1843 10.5528H13.1467V9.37389H10.55V18H13.2574V13.7331C13.2574 12.6084 13.4726 11.5179 14.8816 11.5179C16.2723 11.5179 16.2906 12.8042 16.2906 13.8044V18H19ZM7.56151 8.12C8.42084 8.12 9.12 7.42084 9.12 6.55949C9.12 5.69915 8.42084 5 7.56151 5C6.69714 5 6 5.69915 6 6.55949C6 7.42084 6.69714 8.12 7.56151 8.12ZM6.25999 18H8.99001V9.29H6.25999V18Z" fill="white"/>
</g>
</g>
<defs>
<clipPath id="clip0_110_1525">
<rect width="24" height="24" fill="white"/>
</clipPath>
<clipPath id="clip1_110_1525">
<rect width="24" height="24" fill="white"/>
</clipPath>
</defs>
</svg>
