<svg width="24" height="24" viewBox="0 0 24 24" fill="none" xmlns="http://www.w3.org/2000/svg">
<g opacity="0.7" clip-path="url(#clip0_110_1514)">
<g clip-path="url(#clip1_110_1514)">
<g clip-path="url(#clip2_110_1514)">
<path fill-rule="evenodd" clip-rule="evenodd" d="M12 24C18.6274 24 24 18.6274 24 12C24 5.37256 18.6274 0 12 0C5.37256 0 0 5.37256 0 12C0 18.6274 5.37256 24 12 24ZM18.5437 5L13.3318 10.928L19 19H14.8313L11.0142 13.5645L6.23511 19H5L10.4658 12.7834L5 5H9.16895L12.7832 10.1472L17.3086 5H18.5437ZM8.57715 5.90967H6.68018L15.4124 18.1316H17.3093L8.57715 5.90967Z" fill="white"/>
</g>
</g>
</g>
<defs>
<clipPath id="clip0_110_1514">
<rect width="24" height="24" fill="white"/>
</clipPath>
<clipPath id="clip1_110_1514">
<rect width="24" height="24" fill="white"/>
</clipPath>
<clipPath id="clip2_110_1514">
<rect width="24" height="24" fill="white"/>
</clipPath>
</defs>
</svg>
